<svg xmlns="http://www.w3.org/2000/svg" viewBox="0 0 100 100"><defs><style>.a{fill:#c6d8e2;}.b{fill:#4a859a;}.c{fill:#cecece;}</style></defs><title>homepage-icons</title><rect class="a" x="-2.82" y="-5.03" width="107.68" height="107.68"/><rect class="b" x="40.65" y="15.37" width="20.74" height="67.59" rx="3.58" ry="3.58" transform="translate(46.56 -21.55) rotate(42.45)"/><path class="b" d="M25.61,66.86l10.11,9.25a1.88,1.88,0,0,1-.81,3.21l-11.85,3a1.88,1.88,0,0,1-2.33-2.09L22.48,68A1.88,1.88,0,0,1,25.61,66.86Z"/><rect class="c" x="54.1" y="23.13" width="3.15" height="57.17" rx="1.19" ry="1.19" transform="translate(49.51 -24.02) rotate(42.45)"/><rect class="c" x="50.31" y="19.29" width="3.15" height="57.17" rx="1.19" ry="1.19" transform="translate(45.92 -22.47) rotate(42.45)"/><rect class="c" x="46.19" y="15.9" width="3.15" height="57.17" rx="1.19" ry="1.19" transform="translate(42.55 -20.58) rotate(42.45)"/></svg>