<svg xmlns="http://www.w3.org/2000/svg" viewBox="0 0 200 200"><defs><style>.a{fill:#4a859a;}.b{fill:#fff;}</style></defs><title>social</title><circle class="a" cx="100" cy="100" r="100"/><path class="b" d="M124.54,83.37H158.3c0,.4.08.7.08,1,0,17.09-.21,34.17,0,51.26A23.22,23.22,0,0,1,141.31,158a15.44,15.44,0,0,1-3.94.56c-24.59,0-49.19,0-73.78.06A20.6,20.6,0,0,1,53,155.52a22.44,22.44,0,0,1-10.71-14.85,36.21,36.21,0,0,1-.5-8q-.12-23.27-.14-46.54c0-2.68,0-2.8,2.65-2.8,10.15,0,20.3,0,30.45.09a7.19,7.19,0,0,1,.74.1c-.37.69-.67,1.28-1,1.86a28.48,28.48,0,0,0-3.77,9.93c-2.47,17.76,8,31.15,22.83,34.42a29.4,29.4,0,0,0,34.89-20.22,28.88,28.88,0,0,0-2.43-23.32l-1.34-2.41A1.89,1.89,0,0,1,124.54,83.37Z"/><path class="b" d="M56.07,70.31c0-.6,0-1.13,0-1.65,0-8,0-15.94,0-23.91,0-1.24.3-1.94,1.55-2.13a17.88,17.88,0,0,0,1.73-.47c.32,9.47,0,18.79.19,28.16h4.78V41.43h3.15c0,.51,0,1,0,1.55,0,8.7,0,17.39,0,26.09,0,1.06.29,1.42,1.35,1.34s2.27,0,3.5,0V41.48a6.22,6.22,0,0,1,.84-.12c21.68,0,43.37,0,65.05.24a17.06,17.06,0,0,1,6.33,1.86,22.53,22.53,0,0,1,13.26,15.75,34.25,34.25,0,0,1,.66,7.64c.1,4.25,0,8.5,0,12.89-.35,0-.75.05-1.15.05q-17.53,0-35.06,0a2.74,2.74,0,0,1-1.72-.6,29.85,29.85,0,0,0-40-1A6.35,6.35,0,0,1,76,79.83c-11-.08-22.07,0-33.1,0H41.53c0-1.43,0-2.76,0-4.09.06-3.79.17-7.58.19-11.38,0-6.85,2.83-12.43,7.78-17,.53-.49,1.07-1,1.89-1.72V70.31Zm72.16-8.84h-.05c0,2.07,0,4.13,0,6.2s1,3.31,3.13,3.37c4.32.13,8.65.16,13,0,2.28-.07,3.19-1,3.26-3.35.13-4.39.12-8.8,0-13.19,0-2-1-3-3-3-4.36-.08-8.72-.09-13.08,0-2.45.06-3.07.75-3.2,3.24C128.14,57,128.23,59.24,128.23,61.46Z"/><path class="a" d="M128.23,61.46c0-2.22-.09-4.44,0-6.66.13-2.49.75-3.18,3.2-3.24,4.36-.11,8.72-.1,13.08,0,2,0,3,1,3,3,.09,4.4.09,8.8,0,13.19-.07,2.31-1,3.27-3.26,3.35-4.32.14-8.64.11-13,0-2.09-.07-3.09-1.29-3.13-3.37s0-4.13,0-6.2Z"/><path class="b" d="M122.94,100.92a23,23,0,0,1-46-.46c-.1-12,10.48-22.74,22.49-22.79A23,23,0,0,1,122.94,100.92Z"/></svg>