<svg xmlns="http://www.w3.org/2000/svg" viewBox="0 0 200 200"><defs><style>.a{fill:#4a859a;}.b{fill:#fff;}</style></defs><title>social</title><circle class="a" cx="100" cy="100.73" r="100"/><path class="b" d="M160,109.26V149a.65.65,0,0,1-.21,0s0,0,0,0a.17.17,0,0,0,.15-.12,2.05,2.05,0,0,1-.86.14H137.6a1.85,1.85,0,0,1-.83-.11s0,0,0,0a.08.08,0,0,0,0,0s.11-.08.16-.14.07,0,.07-.06h0v-.15c0-.08-.22-.19-.22-.3q0-20-.15-40a21.85,21.85,0,0,0-.17-2.31c0-.3-.08-.6-.12-.9s-.09-.64-.14-1-.15-.89-.25-1.32c-.16-.72-.36-1.45-.59-2.16-.11-.35-.25-.72-.38-1.08a9.6,9.6,0,0,0-8-6.34,6.94,6.94,0,0,0-.92-.1.3.3,0,0,0-.11,0,.09.09,0,0,0-.08,0,1,1,0,0,0-.2,0h-.15a7.47,7.47,0,0,0-1,0h-.16c-.2,0-.42,0-.64,0a15.4,15.4,0,0,0-3.6.5,11.41,11.41,0,0,0-1.11.34c-3.74,1.32-5.9,4.1-7.09,7.76a24.15,24.15,0,0,0-1,7.33c-.07,13.16,0,26.33,0,39.5v.68a5.55,5.55,0,0,0-.82-.08.57.57,0,0,0-.15,0h-.12c-1.82,0-3.63,0-5.46,0l-16.36.06S88,149,88,149h0s0,0,0,0,0,0,0,0h0s-.1,0-.1,0h-.11s.1,0,.08,0h-.17s0-.09,0-.1.15-.22.15-.35.15-.11.15-.15v-.34h0v-.33h0a3,3,0,0,1,0-.34,3,3,0,0,0,0-.34V74h22V84.38a.9.9,0,0,0-.17,0c.1-.05.07-.12.15-.18s.18-.19.27-.29A3.29,3.29,0,0,0,111,82.8a4.83,4.83,0,0,1,.45-.87A23.41,23.41,0,0,1,122.25,74a21,21,0,0,1,2-.66,8.18,8.18,0,0,1,1-.26,25.77,25.77,0,0,1,3.07-.53l.89-.1c.38,0,.76-.07,1.16-.08a36.5,36.5,0,0,1,13,1.52,19.66,19.66,0,0,1,2.28.86c.34.14.67.3,1,.46a.43.43,0,0,1,.14.07,5.11,5.11,0,0,1,.71.38l.45.25a5.28,5.28,0,0,1,.59.37c.29.18.57.36.85.56s.66.48,1,.72.59.49.87.75a.23.23,0,0,1,.08.08c.31.29.61.59.91.89s.45.48.67.74.42.51.64.76l.55.74a8.64,8.64,0,0,1,.66,1c.18.27.34.55.51.82l.51.91c.16.31.31.63.46,1l.15.33a.28.28,0,0,1,.07.16c.08.16.15.33.22.49.38.9.71,1.83,1,2.76a45.15,45.15,0,0,1,1.76,8.56A96.54,96.54,0,0,1,160,109.26Z"/><path class="b" d="M74.77,50.49A13.55,13.55,0,1,1,60.73,37,13.6,13.6,0,0,1,74.77,50.49Z"/><path class="b" d="M72.92,74.64c0,24.47,0,49.06,0,73.53,0,1,0,.83-.9.83H50.38c-.87,0-1.38.18-1.38-.68V74H72.88A5.15,5.15,0,0,1,72.92,74.64Z"/></svg>