<svg xmlns="http://www.w3.org/2000/svg" viewBox="0 0 200 200"><defs><style>.a{fill:#4a859a;}.b{fill:#fff;}</style></defs><title>social</title><circle class="a" cx="100" cy="100" r="100"/><path class="b" d="M106.46,80.74c.9-2.14,1.7-4.33,2.71-6.42,2.72-5.64,6.26-10.66,11.55-14.18,7.3-4.85,15.36-6.36,24-5.2a15.71,15.71,0,0,1,9.53,4.33A16.86,16.86,0,0,1,159,69.89,41.33,41.33,0,0,1,159,80.67a49.7,49.7,0,0,1-3.8,11.95c-5.12,11.09-12.31,20.86-20.25,30.07-4.87,5.65-9.9,11.18-15.17,16.46a60.46,60.46,0,0,1-19.23,13.4,21.48,21.48,0,0,1-12.17,1.65,13.65,13.65,0,0,1-8-5.1,43.94,43.94,0,0,1-8.56-16.86c-1.26-4.6-2.88-9.1-4.24-13.67s-2.65-9.44-4-14.13c-1.7-5.77-3.39-11.58-6.69-16.69a13.91,13.91,0,0,0-4.07-4.06,4.52,4.52,0,0,0-3.66,0,52.43,52.43,0,0,0-6.43,3.66,2,2,0,0,1-3-.39C38.47,85.4,37.14,84,36,82.39a1.73,1.73,0,0,1,.12-1.68c9.38-7.62,18-16.18,28.63-22.23a17.26,17.26,0,0,1,8.64-2.63c6.09,0,10.17,3,12.91,8.17a32.49,32.49,0,0,1,3.22,10.5c.78,5.09,1.86,10.14,2.79,15.21C92.85,92.83,93.22,96,94,99c.94,3.8,2.08,7.56,3.34,11.27a41.81,41.81,0,0,0,2.61,5.36,6.48,6.48,0,0,0,.81,1.12c1.65,2,3.54,2.43,5.4.64a60.59,60.59,0,0,0,8.18-9,115.2,115.2,0,0,0,8-14A13.22,13.22,0,0,0,123,83.54a5.39,5.39,0,0,0-5.18-3.45,73.77,73.77,0,0,0-8.45.61,22.35,22.35,0,0,0-2.35.46Z"/></svg>